<?xml version="1.0" encoding="utf-8"?>
<!-- Generator: Adobe Illustrator 26.0.1, SVG Export Plug-In . SVG Version: 6.00 Build 0)  -->
<svg version="1.1" id="Capa_1" xmlns="http://www.w3.org/2000/svg" xmlns:xlink="http://www.w3.org/1999/xlink" x="0px" y="0px"
	 viewBox="0 0 1366 768" style="enable-background:new 0 0 1366 768;" xml:space="preserve">
<style type="text/css">
	.st0{fill:#2F2471;}
	.st1{fill:#FFFFFF;}
	.st2{fill:#21C2AE;}
	.st3{fill:url(#SVGID_1_);}
</style>
<g>
	<rect x="0.29" class="st0" width="1366" height="768"/>
</g>
<g>
	<g>
		<g>
			<path class="st1" d="M568.25,332.98h-30.66c1.42,4.94,5.45,7.2,10.64,7.2c4.36,0,7.37-2.09,8.71-3.69l9.55,5.7
				c-3.43,5.28-9.97,8.96-18.26,8.96c-14.32,0-23.87-9.05-23.87-22.28c0-12.57,9.8-22.28,21.95-22.28
				C558.87,306.59,569.93,315.13,568.25,332.98z M555.94,324.77c-1.01-4.94-4.52-7.2-9.21-7.2c-4.27,0-7.87,2.51-9.13,7.2H555.94z"
				/>
			<path class="st1" d="M613.57,336.91c0,8.96-6.62,14.24-19.02,14.24c-8.54,0-16.75-2.76-18.51-10.22l12.31-3.85
				c0.5,1.68,2.18,3.43,6.03,3.43c2.85,0,5.11-0.84,5.11-3.02c0-2.93-4.44-2.76-9.47-3.85c-8.13-1.84-12.57-4.77-12.57-13.07
				c0-8.88,7.62-13.99,18.26-13.99c7.29,0,14.49,3.6,16.33,10.81l-11.39,2.76c-0.5-2.01-2.35-3.1-4.86-3.1
				c-2.68,0-5.19,0.75-5.19,3.1c0,2.76,4.61,2.93,7.96,3.6C609.3,326.02,613.57,329.12,613.57,336.91z"/>
			<path class="st1" d="M667.19,318.82v13.4c0,4.44,1.59,6.7,5.78,6.7c1.09,0,1.93-0.17,2.6-0.25v11.39
				c-1.42,0.5-3.18,0.75-5.86,0.75c-13.07,0-16.08-8.88-16.08-17.17v-14.83h-5.28v-11.23h5.28v-8.88h13.57v8.88h8.38v11.23H667.19z"
				/>
			<path class="st1" d="M729.35,307.59v42.47H715.7v-3.85c-2.35,2.76-6.03,4.94-11.56,4.94c-10.64,0-15.58-8.38-15.58-16.92v-26.64
				h13.57v22.95c0,4.86,3.1,7.29,6.79,7.29c4.02,0,6.79-2.6,6.79-7.29v-22.95H729.35z"/>
		</g>
	</g>
	<g>
		<path class="st1" d="M600.95,360.07v58.64h-13.57v-4.1c-2.51,3.02-6.28,5.19-11.98,5.19c-13.24,0-20.36-11.14-20.36-22.28
			c0-11.14,7.12-22.28,20.36-22.28c5.7,0,9.47,2.18,11.98,5.19v-20.36H600.95z M586.96,397.52c0-5.7-4.02-9.13-9.13-9.13
			c-5.61,0-9.05,3.85-9.05,9.13c0,5.19,3.43,9.05,9.05,9.05C582.94,406.56,586.96,403.13,586.96,397.52z"/>
		<path class="st1" d="M655.74,401.62h-30.66c1.42,4.94,5.45,7.2,10.64,7.2c4.36,0,7.37-2.09,8.71-3.69l9.55,5.7
			c-3.44,5.28-9.97,8.96-18.26,8.96c-14.32,0-23.87-9.05-23.87-22.28c0-12.57,9.8-22.28,21.95-22.28
			C646.36,375.23,657.42,383.78,655.74,401.62z M643.43,393.41c-1-4.94-4.52-7.2-9.21-7.2c-4.27,0-7.87,2.51-9.13,7.2H643.43z"/>
		<path class="st1" d="M693.86,375.23v14.58c-12.06-1.84-13.4,5.03-13.4,12.15v16.75h-13.57v-42.47h13.57v6.45
			C683.47,377.91,688.83,375.23,693.86,375.23z"/>
		<path class="st1" d="M745.3,401.62h-30.66c1.42,4.94,5.45,7.2,10.64,7.2c4.36,0,7.37-2.09,8.71-3.69l9.55,5.7
			c-3.43,5.28-9.97,8.96-18.26,8.96c-14.32,0-23.87-9.05-23.87-22.28c0-12.57,9.8-22.28,21.95-22.28
			C735.91,375.23,746.97,383.78,745.3,401.62z M732.98,393.41c-1-4.94-4.52-7.2-9.21-7.2c-4.27,0-7.87,2.51-9.13,7.2H732.98z"/>
		<path class="st2" d="M784.34,402.63l11.73,7.04c-3.85,6.12-10.89,10.14-19.35,10.14c-13.24,0-22.79-9.72-22.79-22.28
			c0-12.65,9.55-22.28,22.79-22.28c8.46,0,15.5,3.94,19.35,10.14l-11.73,7.04c-1.59-2.43-4.27-4.02-7.62-4.02
			c-5.45,0-9.05,4.19-9.05,9.13c0,4.94,3.6,9.05,9.05,9.05C780.06,406.56,782.75,404.97,784.34,402.63z"/>
		<path class="st1" d="M846.5,392.16v26.55h-13.65v-22.87c0-4.86-3.02-7.29-6.79-7.29c-3.94,0-6.79,2.6-6.79,7.29v22.87H805.7
			v-58.64h13.57v20.1c2.43-2.76,6.12-4.94,11.64-4.94C841.55,375.23,846.5,383.61,846.5,392.16z"/>
		<path class="st1" d="M902.96,397.52c0,12.57-9.47,22.28-22.79,22.28c-13.24,0-22.79-9.72-22.79-22.28
			c0-12.65,9.55-22.28,22.79-22.28C893.49,375.23,902.96,384.87,902.96,397.52z M889.31,397.52c0-4.94-3.6-9.13-9.13-9.13
			c-5.45,0-9.05,4.19-9.05,9.13c0,4.94,3.6,9.05,9.05,9.05C885.7,406.56,889.31,402.46,889.31,397.52z"/>
	</g>
	<linearGradient id="SVGID_1_" gradientUnits="userSpaceOnUse" x1="461.0478" y1="418.7086" x2="600.2035" y2="418.7086">
		<stop  offset="0" style="stop-color:#21C2AE"/>
		<stop  offset="1" style="stop-color:#148E9C"/>
	</linearGradient>
	<path class="st3" d="M600.2,488.29c-76.73,0-139.16-62.43-139.16-139.16h35.52c0,57.15,46.49,103.64,103.64,103.64V488.29z"/>
</g>
<g>
</g>
<g>
</g>
<g>
</g>
<g>
</g>
<g>
</g>
<g>
</g>
<g>
</g>
<g>
</g>
<g>
</g>
<g>
</g>
<g>
</g>
<g>
</g>
<g>
</g>
<g>
</g>
<g>
</g>
</svg>
