<svg version="1.2" xmlns="http://www.w3.org/2000/svg" viewBox="0 0 24 24" width="24" height="24">
	<title>Nuevo proyecto</title>
	<style>
		.s0 { fill: #ffffff } 
	</style>
	<path id="&lt;Path&gt;" class="s0" d="m13 21.4c-0.4 0.4-0.9 0.7-1.5 0.6h-0.1c-0.5 0-1.1-0.2-1.4-0.6l-6.7-6.6c-0.4-0.4-0.6-0.9-0.6-1.5c0-0.6 0.2-1.1 0.6-1.5c0.4-0.4 0.9-0.6 1.5-0.6c0.5 0 1.1 0.2 1.5 0.6l5.2 5.3l5.2-5.3c0.6-0.5 1.3-0.7 2.1-0.5c0.7 0.2 1.2 0.7 1.4 1.5c0.2 0.7 0 1.4-0.5 2l-6.7 6.6z" />
	<path id="&lt;Path&gt;" class="s0" d="m11.4 13.1c-0.5 0-1.1-0.2-1.4-0.6l-6.7-6.7c-0.4-0.4-0.6-0.9-0.6-1.4c0-0.6 0.2-1.1 0.6-1.5c0.4-0.4 0.9-0.6 1.5-0.6c0.5 0 1.1 0.2 1.5 0.6l5.2 5.2l5.2-5.2c0.6-0.5 1.3-0.8 2.1-0.6c0.7 0.2 1.2 0.8 1.4 1.5c0.2 0.7 0 1.5-0.5 2l-6.7 6.7c-0.4 0.4-0.9 0.6-1.5 0.6h-0.1z" />
</svg>