<svg version="1.2" xmlns="http://www.w3.org/2000/svg" viewBox="0 0 25 25" width="25" height="25">
	<title>fb</title>
	<style>
		.s0 { fill: #2f2471 } 
		.s1 { fill: #ffffff } 
	</style>
	<g id="&lt;Group&gt;">
		<path id="&lt;Path&gt;" class="s0" d="m14.8 24.3v-8.5h2.8l0.5-3.4h-3.3v-2.3c0-1 0.5-1.9 2-1.9h1.5v-3q-1.4-0.2-2.7-0.2c-2.8 0-4.6 1.7-4.6 4.7v2.7h-3.1v3.4h3.1v8.5c-5.8-0.9-10.2-5.9-10.2-11.9c0-6.7 5.4-12.1 12.1-12.1c6.7 0 12.1 5.4 12.1 12.1c0 6-4.4 11-10.2 11.9z" />
		<path id="&lt;Path&gt;" class="s1" d="m14.8 15.8v8.5q-0.9 0.1-1.9 0.1q-1 0-1.9-0.1v-8.5h-3.1v-3.4h3.1v-2.7c0-3 1.8-4.7 4.6-4.7q1.3 0 2.7 0.2v3h-1.5c-1.5 0-2 0.9-2 1.9v2.3h3.3l-0.5 3.4z" />
	</g>
</svg>