<svg version="1.2" xmlns="http://www.w3.org/2000/svg" viewBox="0 0 25 25" width="25" height="25">
	<title>fb</title>
	<style>
		.s0 { fill: #2f2471 } 
		.s1 { fill: #ffffff } 
	</style>
	<g id="&lt;Group&gt;">
		<path id="&lt;Path&gt;" class="s0" d="m25 12.4c0 6.6-5.4 12-12.1 12c-6.7 0-12.1-5.4-12.1-12c0-6.7 5.4-12.1 12.1-12.1c6.7 0 12.1 5.4 12.1 12.1z" />
		<g id="&lt;Group&gt;">
			<g id="&lt;Group&gt;">
				<path id="&lt;Path&gt;" class="s1" d="m17.5 8.6c0 0.5-0.4 0.8-0.9 0.8c-0.4 0-0.8-0.3-0.8-0.8c0-0.4 0.4-0.8 0.8-0.8c0.5 0 0.9 0.4 0.9 0.8z" />
				<path id="&lt;Compound Path&gt;" fill-rule="evenodd" class="s1" d="m16.4 12.3c0 2-1.5 3.5-3.4 3.5c-2 0-3.5-1.5-3.5-3.5c0-1.9 1.5-3.5 3.5-3.5c1.9 0 3.4 1.6 3.4 3.5zm-1.2 0c0-1.2-1-2.2-2.2-2.2c-1.3 0-2.3 1-2.3 2.2c0 1.3 1 2.3 2.3 2.3c1.2 0 2.2-1 2.2-2.3z" />
				<path id="&lt;Compound Path&gt;" fill-rule="evenodd" class="s1" d="m15.7 19.4h-5.6c-2.4 0-4.3-1.9-4.3-4.2v-5.7c0-2.3 1.9-4.2 4.3-4.2h5.6c2.4 0 4.3 1.9 4.3 4.2v5.7c0 2.3-1.9 4.2-4.3 4.2zm-5.6-12.8c-1.6 0-3 1.3-3 2.9v5.7c0 1.6 1.4 2.9 3 2.9h5.6c1.6 0 2.9-1.3 2.9-2.9v-5.7c0-1.6-1.3-2.9-2.9-2.9z" />
			</g>
		</g>
	</g>
</svg>