<svg version="1.2" xmlns="http://www.w3.org/2000/svg" viewBox="0 0 25 25" width="25" height="25">
	<title>fb</title>
	<style>
		.s0 { fill: #2f2471 } 
		.s1 { fill: #ffffff } 
	</style>
	<g id="&lt;Group&gt;">
		<path id="&lt;Path&gt;" class="s0" d="m24.3 12.4c0 6.6-5.3 11.9-12 11.9c-6.6 0-12-5.3-12-11.9c0-6.7 5.4-12 12-12c6.7 0 12 5.3 12 12z" />
		<path id="&lt;Compound Path&gt;" class="s1" d="m7.3 10.1h2.3v7.5h-2.3zm1.2-3.7c0.7 0 1.3 0.6 1.3 1.3c0 0.8-0.6 1.4-1.3 1.4c-0.8 0-1.4-0.6-1.4-1.4c0-0.7 0.6-1.3 1.4-1.3z" />
		<path id="&lt;Path&gt;" class="s1" d="m11.1 10.1h2.2v1c0.3-0.5 1.1-1.2 2.2-1.2c2.4 0 2.8 1.6 2.8 3.6v4.1h-2.3v-3.6c0-0.9 0-2-1.2-2c-1.2 0-1.4 0.9-1.4 1.9v3.7h-2.3z" />
	</g>
</svg>